<svg width="43" height="43" viewBox="0 0 43 43" fill="none" xmlns="http://www.w3.org/2000/svg">
<rect width="43" height="43" fill="black"/>
<path d="M30 11H14C13.4696 11 12.9609 11.2107 12.5858 11.5858C12.2107 11.9609 12 12.4696 12 13V29C12 29.5304 12.2107 30.0391 12.5858 30.4142C12.9609 30.7893 13.4696 31 14 31H30C30.5304 31 31.0391 30.7893 31.4142 30.4142C31.7893 30.0391 32 29.5304 32 29V13C32 12.4696 31.7893 11.9609 31.4142 11.5858C31.0391 11.2107 30.5304 11 30 11V11ZM22 17C22.7911 17 23.5645 17.2346 24.2223 17.6741C24.8801 18.1136 25.3928 18.7384 25.6955 19.4693C25.9983 20.2002 26.0775 21.0044 25.9231 21.7804C25.7688 22.5563 25.3878 23.269 24.8284 23.8284C24.269 24.3878 23.5563 24.7688 22.7804 24.9231C22.0044 25.0775 21.2002 24.9983 20.4693 24.6955C19.7384 24.3928 19.1136 23.8801 18.6741 23.2223C18.2346 22.5645 18 21.7911 18 21C18 19.9391 18.4214 18.9217 19.1716 18.1716C19.9217 17.4214 20.9391 17 22 17ZM14.5 29C14.4383 29.0041 14.3763 28.9959 14.3177 28.976C14.2591 28.956 14.2051 28.9247 14.1586 28.8839C14.1122 28.843 14.0742 28.7933 14.047 28.7377C14.0198 28.6822 14.0038 28.6218 14 28.56V20H16.1C16.0169 20.3265 15.9832 20.6635 16 21C16 22.5913 16.6321 24.1174 17.7574 25.2426C18.8826 26.3679 20.4087 27 22 27C23.5913 27 25.1174 26.3679 26.2426 25.2426C27.3679 24.1174 28 22.5913 28 21C28.0168 20.6635 27.9831 20.3265 27.9 20H30V28.5C30.0041 28.5617 29.9959 28.6237 29.976 28.6823C29.956 28.7409 29.9247 28.7949 29.8839 28.8414C29.843 28.8878 29.7933 28.9258 29.7377 28.953C29.6822 28.9802 29.6218 28.9962 29.56 29H14.5ZM30 15.5C30.0041 15.5617 29.9959 15.6237 29.976 15.6823C29.956 15.7409 29.9247 15.7949 29.8839 15.8414C29.843 15.8878 29.7933 15.9258 29.7377 15.953C29.6822 15.9802 29.6218 15.9962 29.56 16H27.5C27.4383 16.0041 27.3763 15.9959 27.3177 15.976C27.2591 15.956 27.2051 15.9247 27.1586 15.8839C27.1122 15.843 27.0742 15.7933 27.047 15.7377C27.0198 15.6822 27.0038 15.6218 27 15.56V13.5C26.9959 13.4383 27.0041 13.3763 27.024 13.3177C27.044 13.2591 27.0753 13.2051 27.1161 13.1586C27.157 13.1122 27.2067 13.0742 27.2623 13.047C27.3178 13.0198 27.3782 13.0038 27.44 13H29.5C29.5617 12.9959 29.6237 13.0041 29.6823 13.024C29.7409 13.044 29.7949 13.0753 29.8414 13.1161C29.8878 13.157 29.9258 13.2067 29.953 13.2623C29.9802 13.3178 29.9962 13.3782 30 13.44V15.5Z" fill="white"/>
</svg>
